<mxfile host="app.diagrams.net" agent="Mozilla/5.0 (Windows NT 10.0; Win64; x64) AppleWebKit/537.36 (KHTML, like Gecko) Chrome/133.0.0.0 Safari/537.36" version="26.0.14">
  <diagram name="Page-1" id="RY2BstCwcjFqxHoWi1qS">
    <mxGraphModel dx="1034" dy="549" grid="1" gridSize="10" guides="1" tooltips="1" connect="1" arrows="1" fold="1" page="1" pageScale="1" pageWidth="827" pageHeight="1169" math="0" shadow="0">
      <root>
        <mxCell id="0" />
        <mxCell id="1" parent="0" />
        <mxCell id="I_dTkE6rpuBhYtCXIpUs-1" value="" style="shape=image;verticalLabelPosition=bottom;labelBackgroundColor=default;verticalAlign=top;aspect=fixed;imageAspect=0;image=data:image/png,iVBORw0KGgoAAAANSUhEUgAAAWYAAAHoCAYAAAB6nEW+AAAAAXNSR0IArs4c6QAAAARnQU1BAACxjwv8YQUAAAAJcEhZcwAADsMAAA7DAcdvqGQAAEdwSURBVHhe7d13lxzXfe77766qztOTAwaZAIlAEsxJEoMoiZRsiaYsS/Y6Z511130PegPnddxkH9mWrmUqWPa1smgFimISIwIRZwBMjj3TucK+f1RPY6YxoAhghiqQz8erZbBSV3dXPbX7t3f1mMmJCYuIiCSG0zlBRET+vBTMIiIJo2AWEUkYBbOISMIomEVEEkbBLCKSMGYrhsuFYUilUqFSqRKGIdbe9CZFRG5Jxhi8VIquQoF8PofjXH/796aDuVqtcvrMOc6cPcv8wgLNZlPBLCKfWI4xZLNZBgcHOXL4EIfuuB3P8zoX+0A3FczVao03/vgmb779DgcP3MahQ4dJpa5vB0Tk48kY0znpE8FaS7Va451332F2do6HH3qAhx984LrC+YaDOQxDjp88yct/eJWHHnyARx99lEKh8In9MERE1kRRRLlc5he/+CXvvnecZz7/WY4cPvyhyxofbqlN1Ot1zp69wK6du3jggQfp6upSKIuIAI7j0N3dzRe+8HlGRoY5+f5pqtVq52LXdMPBXKvXmV9YYP9t++nuLnbOFhH5xOvq6uLee+9lbm6ecrnSOfuabjiYwyCkVquSyaRxXbdztojIJ57jOBQKeer1On7gd86+phsOZrDYyGJQ+UJE5INEUUQQBERR1DlrUzcRzB+OtXEvpR566KFH5+OTIgojyuUKq6tlGo0/PaT4hkdlzMzM8J1/eYGvfOXLPPTQg52zoTVyo1qr02g0sJHlhp5IRD52jIm/5mezGXLZ7IcerXAreufdd/nuv/wrzz7zeXaOjrbLG+l0+poDJrYtmKPIUi6XqVZrZDIZXPfj+8aLyPULwhDf9yl2FcjlctcMqU6drW1jTKLX7QxmgFTKo6ur65r9c9sWzGEYMje3EN8BM9CnYBaRDZp+wMLCIhbo6+35k61may1hGFKvN2g0m0RhiHEcMukM2WwGz3OvGZTWWqIoitdtNAnDEOMY0qk02VyGlOf96XUbDRr1eF2MIZ1Okc1mSaU8nGusyzWC2XEcisUuUqlU5+KwnTVma+MrYirlxjvuOHrooYce7UfKc/E8jzCM/mTN1VpL0/dZXCqxuloGa0mlUhhjKFfKLC2Xrlm7tdbi+wFLSyVKK6tEUdTKJEOlWmFpaZlavX7NdYMwZLm0Sqm0ShiFeCkP13Wo1WrxurUa0SbrfhBrP7i0u23BvOZaVyERkQ87qCsIQpaXSkRRyMBgPztGhtkxMsSOkSGGhwYxBkorq/j+1UPSwjCitLKCHwQM9PeyY0e83o6RYXYMD+G5HisrZZrNZueqRJGlVFqhUa/T19vN6MhQ+7FjeJBMOsXKSplGvdG56p/2Acm87cHcyfd9Go0GfhC0f4kuiqL2cJJm0ycMQ4IgaF/B1s/3/Xh+FF25yoZhSKPRaK+z9pVnbdthq5bVbMZfQ9b/At7a/PXbE5HksNZSrVUJo5DB/n66uwrtsoXnuhTyOfr7ejAG6vXGhvPYWkutVsP3ffp7e+juLrbLFq7jkMvF67qOoVqrXzWcrV6v02w26e3rprenu91Kd9atm0p5VGu1uMSxRT7SYLbWMn7xIsePn2R8fJzpmRlWVlaZmJhkaWmJ8+cv8P777zM9PcOp99+n1nqjJienmJqa4szZc5w+fYbxixeZmZ2lXC4DMDMzy3vHT3Dx4iVqtRpN3+fyxAS+77OwuMjExCQnTp7kzbfeZnZ2josXL7G6ugrA1NQ0ly9PMD+/QK1e79hjEflzi6KIZrNJNpulULi6k9C0fs0tm83Q9APC8Eq4WmtpNpuk0ymKxa6rasHGQCaTJpfLEQQb142iiEajied59BSLOJvUwNPpNPlcjiAIN6x7s65+pm22tLRMJpuhr7eXMAy5MHaByxMTVCoVlpaXMY7D0vIyJ06eYmx8nHq9zvunzzA5Nc3S0hI9Pd3MzMwyPT1DuVLBWsvK6iqu69Db20MqlSLwfSYnJwnDkFJphTCK8DyPRrOJ6zpcGBtjanoG3/c5fuIEFy9dYmFxkXpNwSySNGEUEUWQTqU2DUcAxzikvBTWRli7MVyjVj36WgMQHMchlUq1vm1vDPW1evQ1R08YE7eiW8+1VTbf023UaDQYv3iR1XKZ/r4+FhaWKBa7SKczuI5DPp/HWovjOKysrLJcKlGtVkh5HqurZc5fGCNqBW3UukIFQcDE5BTLpVL7eebnF/nDK69xYWyMdCpFX18fPd1FCoUC2WyO+fl5JianSKVTuK6LjTZ+oCKSDKZ1f/EHd7CtC9UNreL43x9UprSWded+x7oGbHTtdSFe94OXuH4feTBnc1kO3nYbQ4OD+L5PFIU0mk183+fy5CQnT55kdXWVrkIXXV1dnDlzlmJ3N14qRU9PN3cePcqxu+8im80SRXFtOJ1Os3fPbkaGh+OQtdDdXeTI4TsY3TGy7koZjzvM5bJxa/3CGIMDg6TTaSyWKPpk3Y0kcitwXQfHdanX6vh+0DkbWp2D9UYD13U3lCtc18F1XRqNJo3m1R2DtPqo6vUGjuNsaFW7rtP+pl1vXN0xSKtjsV5vYAx43uat6hvxkQZzXKyPC+XLy8ssl1a44/bbicII3/e5bf9+jh27m8GBAbq6uujp6cZaGOjvJ5NJUygU6O3toVAo4BjDwuIis3NzgKVeb1BaWaFUKlGtVsnnC/T19VEsFnEct/11xRjT2k4vjmPo6+3F8zyazSZT09NUKh/+F6BEZPutNab8IGBpuUSz2WyXDay1+L5PabVMsxm0bma7EpBr60ZRxOLScjz+ed26QRCyWi5TbzTJZDJXlUpy2SwGw8LiEvVGY8O6YRhSrlSo1evxutcod9wI95vf/Ob/7Jz4YVQqFd47foJDhw6xc+fOztnxnX+VCrlclnwu157uuA4GSKVSFPJ5+vv76O7uJp/L09PTTU93N4VCnt7eHgb6++nv76e3t4euYpHuYrF9h5DjulhrSXkexe7u9jZTnhcX67u7KRQKpNJpstlMq+MgTy6XI5fN0tvbw9DwEL09PeTzeXLZHKb1M31rAS4i2ycebVEnCELyuWvflm2MicPWQrXVuR9FFj8IqDcalFbL1Go1stkMhU3+xp7rOBgMtVqdRjMO17UW9upqmUq1Fjf88rmrasmu62CMoV6v06g3CFth3mg0WS1XWC1XSXkeXYU83jWCeWZ2luPHT3Dw4AGKxfgnko0xV11E1tu2O/+CIGRmdo6e7iKDA/0byz4i8okXhiFz84s0/SAesnaNkFoTlw3q1Or11hBX2/oW7pDNZsnlstfcRtS6c69WreO3htU6xuC4V36v41p/+ikendFoXUQCoihe1zgO2Wy6tW7qmhm32Z1/xhiKxSLp9OZ3/m1bMIdhxOLSEtbCYH9vfOvhNXZcRD5hrKXeaLK4GI/S6i52XdXS3Yy1lrB174G18c8Or9WR/9S33LVRFmEYErXWdRyD68Z3AX6Qq9eNR3O4blwm/SCJCmZrLY1Gk+VSiSC4ckOHiAitcEqnU/T29pC+xm9GfBwkKphpF+YDmr6voWgiso7BMQ7pdIpUavMSwsdF4oJZROST7kaC+YOLIyIi8pFTMIuIJIyCWUQkYRTMIiIJc1Odf//8ne/yzDNf4N577+mcLSIiwImTp/iPf/+P6+r8u6lg/r///lv0DwzQ19fXOVtERIBSqcRKqfTRBfP/9ff/RLZ3FCffT/gnfhpPROSTqFlZIt2Y++iC+e//6bsUDj7BSu4Oar5uIBER6WSXztE39+uPLpj/n3/6LtkDT7GYOUS1qWAWEenkLJ9lZPHF6wpmjcoQEUkYBbOISMIomEVEEkbBLCKSMApmEZGEUTCLiCSMgllEJGEUzCIiCaNgFhFJGAWziEjCKJhFRBJGwSwikjAKZhGRhLnpX5fLH/wsS7lD1PTrciIiVzGLZxlc+NV1/brcTQXzt779Akc+9Zf07LufZnhDmxER+VibHzvO5Ve/99EF8z9+5wXufep5hm5/mCDsXEJERCbPvc3pX3/nuoJ5S2rMBgNGDz300EOPTR/XaUuCWUREto6CWUQkYRTMIiIJo2AWEUkYBbOISMIomEVEEkbBLCKSMApmEZGEUTCLiCSMgllEJGEUzCIiCaNgFhFJGAWziEjCKJhFRBJGwSwikjAKZhGRhFEwi4gkjIJZRCRhFMwiIgmjYBYRSRgFs4hIwiiYRUQSRsEsIpIwCmYRkYRRMIuIJIyCWUQkYRTMIiIJo2AWEUkYBbOISMIomEVEEkbBLCKSMApmEZGEUTCLiCSMgllEJGEUzCIiCaNgFhFJGAWzfERs6/Fx8HF6LZJECmbZdlEYsjhzkdXF6c5ZtxxrLeXleZZnLxEGfudskS2hYJZtV5q7zLk3X6RSmu+cdeuxlsryPBdPvMrq4gzWquUsW8/95je/+T87J34YlUqFd947wY79Ryj07yLS8SmbiKKIsXdeAhuy58gjNGtlKqVFUpkcjuMCEPpNFqcuYByHVDpLrbzMpVOvMXfpNItTYyxNj7E8e5koCsnmi2AMzdoq0+ffY2b8JCtzE0RRSK6rF2MMjeoqM2MnmLt4muW5S1RWFnAcFy+TBQzNWpnx4y8zf+kMi9Px9pdmxrFRRCbfTeg3mBk/ycLkWZZnL1MpzWEMpNJ5HNfFdVOszF8mjAK6+3e0X4fIZlaXZlgYe5eDBw9QLBYBMMaQyWRw3c2PHbWYZVuFQZPqyjy9I/vw0lmWZi4zc+EEfqPeXsZv1Jg6/w7lxRkAlqbHmDz9FtXSApWVBcpLs1SWZmjUVrHW0qiu8u5vf8jEmT/SrFVYWZjizOu/YHb8FDaKKC/NMv7e71mcPMvC5HnG3nmJE7//dxYmz2FtyOL0GJdOvEJ1dZFqa/vlxRnq1TI2iqgsz3P+7d+wMHmepZlxJs68xck//IT5iTNYa0ln82QLPQT1KjYK171aka2hYJbtZS1RFOK6KSyWwK8T+LUNJQBLRNBs4PsNAMJmg+LACIcf/RLHnvwaxz77de584qvsuO1uXC/FwuRZyosz3PX4Vzn6qb/kzk9/hf7RfVw+9SpRFBCGAU4qw+FH/4IHvvDfeeDZ/0Gu2Mfs+CmCRgO/ViVX7OfIo1/i7tb2737qbxi97S4c1yXw66RSaY4+9pfc89TXuffpv6V3aDdTZ96mWa+AAeMYrLXqApRtoWCW7bU2gMGY+D9thHFcHGfdoWcNBoiXuLKscRxc12s/1koG1dVl8t0DdPUO4bgeXiZH78h+6uVl/EYNbISDwfFSuF6KbL6Lrr5hQr9BFAU4bvzcxnRs33UxQBQGgMFNZXG9FJlcFwO7DtKol2nWyu09VSjLdlEwy7aKbIi1URyqNm5BG0ycbdaCtVgbYa3FtMLauG7cGo2i1rwoXvbKVvHS6XX/DV4qTRiGRGulhXbKx//hut6V52n9O4rifevswLNYjDHt/bGtfYxstC6OTbxfIttAwSzbykYRURS1W6NYS7NeYWV+iuW5CZZnL1Oam8BvVDGtFrExDo3yMvOXTzN38TTzl89QK5fWbZTO5G2FeAg2AgzGOPEFgHhZx/HAxuUH47g0qqvMXz7T2v5ZaqvL7W0Z4xBFIfXVZSorCyzPXmJ2/CTZQjfpbFd7ubULi8hWUzDLtopblXEYYuLe6IXJc5x46Ue8++sXeO+3P+D0az9jZWGqHXI2ilhZmObCOy9x9o1fcPaNX7Ewda7dsrVRRBT61Msl6pUSjUqJRnVlXU7GLd51uYxxPTAmblFbS6U0z4V3fseZN37B+Td/xfzkuSvLGofVxRne/Pm3eeVH/wev/+R/UV6eZ8+hB0nnWsFsjEJZto2CWT4SxrSqyMahb/Q27vzMc9z79N9y7+f+jrufeJ7ekb1Xhp0Zw8Cu27nvc3/Hg1/837n/2f+NnQfvbW0DwsBn4fI53vzFt3nrF9/m7V/+C2de/2VcflgfyOs4bnxhAIu1lt7hvdz7ub/joS/+79z3zP9g1+33XlnYQK6rl9sf/Dz77v4UhZ5B9t31Kfp3Hmxvv12OEdkGCmbZVmvlhLVhZY5jSGfzdPXvoHtwJ8X+EfLdg3ipTLtma4yLm0qRznWRKXSRzRdwXO/KRh2H7qFd3PHQM9zx0LMcfPDz7Lzj/rh80QrvzUMzvjgYx8X1PDKt7WdyG7dvMHjpDP2j+9hz+GF6h3axujBJtHann12rO6vFLNtDwSzbyxgMpt1lthZm63MzboWaVufa+tb1uoXWs5ZssY/B3bczsOsgAzsPUByIb/QwxsVGHcPYrCX0GxgDjuPEgz7WWtebMK19BnBTafI9AzSqqzQbFYJmfa3IHZczRLaBglm2WRyS6zvirmptOnFLNwpbIypsROg3qa8uU11dpLa6RL26QuA3AYii8KrMNq16trURGLBhQL1SolZeprw8R2luAi+dxUtlWkHtUyu3tl9epl4pEfiNVp3atvY6DvJMvkizUWXi9B+5/P7rhIHPNSomIltCwSzbyhgHx5h4fPH61ui6VItrww42arWYXZelmXGO/+5HvP3L7/LOi//Ke7/+ATPjJ1s3q3g43rrShjE4rtce3oaFyvI8J176D97+5f/Le7/+PrXyMsN7j+ClszhempX5SY7/9t94+1ff5e1ffZd3fvUCM+Mn45Edre05bgqMQ7FvBwa4fOoN/GYc3mEYqO9Pto2ZnJi4ocNrZmaGf/zOC9z71PMM3/4IvoZ0yiaiMODtF79LOtfF4Ue/hF+vEvoN8t0D7bpuFIWUF2dI54pkC0Wa9SorC5PYKMS2EtwxkC32U+jup15eJooiCj2D0CqP+M0a1dICxYGdBM0aqwtTrRtKItxUhkLPALliH45xaDbrlOYut4fWWcBYS75ngFyxn9BvUF1dpNg/iuPEF4zq6iLNWoVC3yAGh/Nv/xrXS7P/2GfiVrjINUyee5vT//Vtnn3m8+wcHYVWY6RYLJJOpzoXBwWzfBSmz7/L+Ik/cPiRL9E7vCceS9xRn91s2vWxWLtWn75Sy25NvO5tf9D+LM2Mc/HEK+y8434Gdx680lIX2cSNBLOOKNl2Q3uPcNs9T+B68d16mwXeZtOuz8bwjcsj8d17N7Lta61jrSWT7WLXoQfoG9mrUJZtoaNKtp3rpRjee4Ri/0jnrFuOMYZ8zwCDu25XCUO2jYJZRCRhFMwiIgmjYBYRSRgFs4hIwiiYRUQSRsEsIpIwCmYRkYRRMIuIJIyCWUQkYRTMIiIJo2AWEUkYBbOISMIomEVEEkbBLCKSMApmEZGEUTCLiCSMgllEJGEUzCIiCaNgFhFJGAWziEjCKJhFRBJGwSwikjAKZhGRhFEwi4gkjIJZRCRhFMwiIgmjYBYRSRgFs4hIwiiYRUQSRsEsIpIwCmYRkYRRMIuIJIyCWUQkYRTMIiIJo2AWEUkYBbOISMIomEVEEsZMTkzYzokfxszMDP/4nRd48Kkvs+P2+wmiziUkuQwRHhEuYDpnSmJZHBtCpJPtVjJx/l1O/Oa7PPvM59k5OgqAMYZisUg6nepcHG42mL/9nX/h80/ez5237yCKws5FJKEiUqxygHI4jLVu52xJKMf6FCtTeNVFsDd02sqfwdnJcV5895WPLpi/851v89zj+3jggAdhs3MRSajQ5FngMebrtxMpmG8ZqajBjsV3yM6dVzDfQo4vLvCDqamPOpj38OBtLjZsdC4iCRWZPPN8mvnaIUIF8y0jbeuMzr9JbuYccEOnrfwZvLe0xPdnZ68rmNX5JyKSMApmEZGEUTCLiCSMgllEJGEUzCIiCaNgFhFJGAWziEjCKJhFRBJGwSwikjAKZhGRhFEwi4gkjIJZRCRhFMwiIgmjYBYRSRgFs4hIwiiYRUQSRsEsIpIwCmYRkYRRMIuIJIyCWUQkYRTMIiIJo2AWEUkYBbOISMIomEVEEkbBLCKSMApmEZGEUTCLiCSMgllEJGEUzCIiCaNgFhFJGAWziEjCKJhFRBJGwSwikjAKZhGRhFEwi4gkjIJZRCRhFMwiIgmjYBYRSRgFs4hIwiiYRUQSRsEsIpIwCmYRkYRRMIuIJIyCWUQkYRTMIiIJo2AWEUkYBbOISMIomEVEEkbBLCKSMApmEZGEUTCLiCSMgllEJGEUzCIiCaNgFhFJGAWziEjCKJhFRBJGwSwikjC3RDCHkaUZRFjbOefjJYqg6X98XmcYhQShj/24vKBrCKOAIGh+bF5nEEUEUdQ5+WPFAn6CX2figzmKLBPzdd49X8YPkvkmbpVSNeCNM6ssl/3OWbecMPSZmTnP5ORpwvDWfz3XYm3E0tI0Z869QaNZ7Zx9y2mEIe+XSoyVy4QfkwvNZqIo4kypxInlJZpR2Dn7zy7xwbxaC3nrbJlqPcQY0zn7Y8V1DJMLTd69UKZ5i1+EyuUlzl94i0azhjGJP8xugsF1PaZnzjM1fZYogSf59Zip1TixtET0MQ5lAGMMnnF4dXaeqWo1cd92zOTExA3t0czMDN/5zrd57vE9PHibiw0bnYtsiQtTNV4+ucxT9/Szoy/Dr99Z4uxkBQy4xuA40JNP8eQ9faRTDq+cXObCdA0A1zW4Doz0ZvjsvX3kMi61Rsh7FyocHy8TWMtob4ZH7+ymvyvF2cka711YpelbMOBHljAC14E79xTYOZhhdqnJod15chkXgFIl4Nxkjf0jWfqKaU5cXOXkeIUgsGTSDrsGsxy7rYts2sVay9mJKi+fXKbWjPDc+ADJpRwevKObO3Z38e7YCqcuVvjCAwMMdKc63o2tEZk883ya+dohQhu/jq126dJJLlx8i/vueZZctovX/viflEqzOI6DMS6O49DbM8Lddz5J069z8tRLLC1PY4zBGBfP9Rge3s+h2x8mnc5Rra5wfuwtpqbOYhyH4aG9HLr9EVKpLJcun2Ri8jRhGACWMAqIohDXTXPsrqcIw4BafYU9u47gOB4ApZU5lpam2DFyENdLcWHsLWZmx7DWkknnGB7ez97dR3HdFEHoM37xOOcvvEkYNnAcD2NcspkCR498moH+nZx8/2XK5SXuOfY5spl859uxJdK2zuj8m+RmzrW+jG+tyFreWJhnslLl8zt30owifnzxErUwxDEG14DrOBzq7ua+gQHm6nX+MDvLUqOBZxyMMWQcw9G+Pu7s68MzhsVmgzfm4m2mXZfDvd0c6+snAt5dXOJiuUyEJbKWMIr/f97z+OzOUebrdRwDB4rdOK1G2cVymeVmkyO9vTSjiNfnZpmrNzBAwfM41NPD3q4uUo5DLQj448ICZ0olImtbYWzoy2T49MgwPak0L4yPMZrL8enhETxnexoQ7y0t8f3ZWZ595vPsHB2F1oWhWCySTm9+jm/PnmwRa6HuR3iuSzbtUK4HnLi4Sm9XittHC+wbybFnMMtIX4a0Z1gu+4zN1Bjpz3DHrjz7hrPsHswy2JPCcQxBaHn5RInj42X2jmQ5urvAaj3gxTcXKVVCMimH3kKKvqJHtRFSqviM9qXYO5ilt+gxu9TkzGSNun/lpFitBpy5XKFcD4GI9y6UWS779BU9UimHExfLfO+lGZbKTUJrGZupUm0EHN2bZ/9Inr1DWUYHMhRyLsZY8hkXYwxBsPUn3kfH0vRrpFM50uksK6vzTEycYqB/FztGDjI0tIeBgd10d/fjOC6rqwssLk0xNLSXHSMHGR7aw8DALrq6+nAclyBo8s57LzI9e4Edo7ezY+Q2ZufGefvdX9H066TSGfKFHorFPpZXZqk3KvT372RwYBeZdI6FhcvMzFwgCIL2Hq6uLjI5dRbfr9Ns1jhz7nV8v0Gh0IsFTp95lT++/XMajSqB32Rm9jyel2LnziMMD+1ncHA3fX07SKUyGOOQyeQJowB7C7eYI2up+QF5z8NzHKaqVS5VytxW7OJAd5E9hS525vP0pNNYYLpWY7HRYG+xyL7uAnsKBUbzBbpSKQxQ8pv87NIEy80mh3p72JnP88bcAm8tLBBGEVnPoTedojftcblSIbSW3V0FdhbyGODC6iqXK1XCdafCVLXKhZVVgihiqdHg+NIyacehJ5WmGUX8cnKSP84vENiIahAwXl6lmE5zoLubfV1d7MoXGMplSTkuruPQm0pTC8JtuMzdnEQHM61wNgYMhsgC1nB0b4EnjvXy9H19fPb+fh67s5tiwSOKLGnPcN+BIk/e08dn7+vns/f188Ad3WRSDg3fMj5b59iBIk/c3cdjd/bwzIMD+IFldrnJnuEsT93bx9P3D3B0b4G9Qzk+dWcvjx/rZf9IHtvanw37B0QmbmFbDH4YcWh3gc8/MMCXHhrgSw8NUquHvH+pio0skYWRvgyP393H0/f18fT9/Tx5Tx+7BrMAmNYjaQfK9Yq/Gpr4c4siXNfjwG33ceyup7j37qe59+7PcvuBh0ins1hryea6uOPgwxy76ynuuftpjt31FHt334nnpak3KiwvT3Pk0GPceeQzHD3yOMfueprV8iLV6gqjI7dzz91Pc++xzzE0uJcdwwe568gT3HnkMxQKvev2Z/3+RVjig8taSxSFHNh/H/cd+zwP3f8XHLvrs0xOvk+pNIu1EWDYMXKAu448zj13f5Z7736aO498hu7iYLzBj0mVzVrbeimW0EbkvRQPDQ3xxI4dPDW6g6d27OCOnh68Vgu2P5vh4cFBnhzZyVOjO3h8xw5uKxZxjGG+XmfFb/Lk6A4eHR7m8R0j3DcwwPnVVSLgrt4+nhod5akdOxnJ5bijp5snduzg4aEhCp4H2NZndOWzC6xt5QGENiLtODw6NMTTO0f50u7d3D8wwFsLC1SCgAjwjMPhnh4eHxnhqR2jPDU6ykODQ3Sl4pZqUgMwqfvVFq19JgYcA8aJPxTXiWuynmNwHRMHWivVHHNl3tp8iEc8RJGlr+DhufH0fMYln3WoNcN4PdfgOeA4cZnEba2/ts3Nzj+z7tgJQ0i5Bq/16Ovy2NGXYbniE0bgOHHqrm23vf+tDRtM63C8taM5slGrT8DgOE7r6mpwHBfH8VqPuIxiTPy+OsbZdH6zUcVxXYpd/biOi+u45HPdpFJZgqCB4zi4rfWMiZ8v3k787WNtO9e83Nkovnh4KVzXw/NS9PYM43kZqrVVLPHX4LievHH/1vo9DPFV+5b/3NYaBzYuFa69Z64xuI6D6zhxWcHEx2z8ucXHcDzftMsO1SAg53p0pdK4xuA5Dv3ZDM0wIrAWpzXNdeKT2nNM/Dyt48HFueoju7JHcSNpbRue45BxXXYXCjSjkKoftDPBae9/69HaPq35SfzUEh3MtjVUrnUcxCeBAT+Ma79R62Ft/DY7xmCs2TCvHexrrSYTh+6aOAjjdf6UK2ttFFqu9GAbMK3tW2sJQig3AhwTh7tjzJV9a+9/a0PxuY+15qqW+a0miuLO2rWgNEAUBkRRHIJxKzRm4rODyIbr5l95AywWg4OzrhNxLRCjjuFOpv0/HdM6mfjzsTY+KePja237Ft9v4PsNHNfFEIeNbe3blf1f/yE5RDa6KkhuJZGNW8lrweuY+DgMbVz7jVrv1xqH+HO71vzIthpT7Snx8R90LMc1PqP1IbxeGF0JUqe1TVrnWzUIiKxth69p7V/Yen2dnZrGGKL1IZEQiQ5msIRhhDFxODvEl/RTlyq8cqrEq6dKnL5U2TCMruZHvH1+lT+cXObV90ucn6zR9OP51lpolUauPEMc8p0HSvzJX32G29aVeo2zdgC1phksK5WAqYUG4zMNXnm/xMRcg/3DWRwnPtCnlhq8fGKZV06VeOvsKsvlK7XP+GC8+sC91URRgGl1CBnj4PtNzo+9xftnXuHMudeYmb2w4TVWayucPfdGa/7rzM1fbI9wiKLWV5J1H5zFEoXBVe9TfOJ1fm4mLl2sW9bgxC1cazEYsKZV655kavocp868jOt69HQPYYxDGEVMzZzj1OlXOH32VcYvHadWW133FHFJZPMouXUEkcVplaAMhnLg8/r8PK/OzfHHhQUma7UrLVZgvt7gzfl5Xpub482FBabXz2+VRdZ/GpG1BJsEobXEn8N6rWRe/xG7rL3P8eEQArO1GpPVKqdXSvxhdpbhXI7uVBqAZhTxfqnEa3NzvD4/x/ulEvXwSj+Ai0MSu3MSHszxh2/i0whLfPWbXmpwbrLGmYkq52dq+Ot6B/zAMrVwZf7l+TrN1jsfWkMzsEwsNDg/XWNsus74TI3Vmn91C9Vw1UnmrtUh1k/vOJaC0PDq6RLffnGa//PHlzk1XuaZBwa5fXc+/tpk4w7D81M1zk5UOTddZbnit1v2a422zt25lVgLNmoFHvGLjqKAxcVJpqbPMDl1hvmFifYJZoGm32B+/jJT02eYmjrL0tI0YTuYQxqNOvPzl5ieOc/M7BhzcxfjccOd53LHfwM47tUjT9rfwFpXaj+oc/zEb/iv33ybX774LVZWFnjkoefiGrIBa0PK5UWmp88yOXWGmZkL1OrlKyHRep239Oe2dr6ZuIEBUA9DJssVzq+scL60wmytduVzs1AJfC6VK5xdWeFsqcRcvU7Yeh9CLKtBwMVymbHV+DFVreJv0kFqWx9FW6v00PmOxq359kIs1Ov8bOIy3z57ln89f4GU4/CFXbvIuPGJFFjLXK3O+ZUVzpZWuLhaphYE7a22vqwlTuKDuZPnGp64q4+vPznCN54a4ZkHBshnrpyNXVmXLzwwwDeeHOEbT47wmbt7KeTiE9NGlloz5MzlCu+cX+Xt86u8N1amVA43PaE7mVYheX2IG2Nw3bhlCJBKwb0Hi/z1Z4Y5dlsXe4az3L2/q13ndhzDwdE833gq3v+/+tQQ+0ZyrKuufIzEp7oF0uk89937LI9/6m/5zGNf5+jhT8e159a1rbs4yEMPfpnHP/W3fPpTX+P2gw+S8uJWj40i6vVVLl0+wdj4O4yNv82lyydoNKpXt7LWmlkbprSuiOumG+PENenW+qlUhiOHP8UjDz/H7l2HGN1xgJHhfe3P1XVTHDzwAI9/+hs8/qlv8MD9X6Kvd7Q9P97olX/esjpew0Amy1/s3cPX9t/G8/v3cU9/f7t04BjYXSjwF3v38Df7b+Or+/dzV29vu2MwshHLjQYnlpZ4Z3GRd5cWOb+yStjuYLyi81MzrVJJZ4UxLgm21rZQTKX5/M5dPLt7Nwe6uzna28dAJtP+XHKuy2Mjw/z1/v187bb9fG7XKL3pdMfzJy+abziYjTE0/YB0Og3r6oVbyRB3jjX8COPE9coognzOJZdxyKYdUl48HcDzHDCWTMqQXZvvXjl11xpIjx3t5en7+vnsvX08eayPvoJH2lv3VhhDGFqiKO6ka+0MKdeh0YxanSIxz4lrVGkvfh7HGLpzHrftyHH3/i4mFxvtr25rF3tjIJuO9y+TctqhvDav6VvSrSv+9ojAONt2OJpWa9S2jpO1kkY2HQ+fS6ezuG48nphW6EFELluI56c2zgfI53u48+gTrREbn+XwocfIZPKkUpkNy4VhAK0xq2uMceISR0eNOoz8uMPPcXGMR3dxiNGRg4yMHGB6Zqxde3SMCzbunEy3XkPKS294DmsjgqCJ2+5o3HpxkWH7GBOPfHLizpBWp5wl57pkPZeM67aPfdM+Xg1dqdSV+esutliHnYU8T4yO8tnWiI57+vtJtzrr1rORjTvGW0yrxe121Kgx8bdm1xgybnzujORyHO7pYTCbZb5+pZTiOfExnnFccp5H1vVIreuwpfUNPNrkQrG1LEEQkPI2HtPr+7o6befZvyXWv4mRtURR3Jt7LYYrIxw6Ra3REMW8S0/eo6fg0Z338Lx4BMZ6Ftpf52gdKCnPEEQWf12NLIjiunU7wFuzjIGh3jRhBEurPtVGSNAquax1Dl6LWTvqb2XrQjCuFW8My6td+1CMbIjrpsjnusnne8jne8jlinhuapNtRle1ol3XIwiaROGVWn4Y+q2LxsZlHcelp2eYen2Ver3cKle0Gh5XPdc67Q/tA5a5BbT33kIYxWM0rv2K4jr0ZiwQYck4Lt2pFN3pNN3pNDnPxV3XWGov3xHApnVnXiO80jdgW7eMpze5+HmOw0Amw6rvUwsCKv6V8uQHfmwf8Br+nK59NiREnIGtt279vzdjLX5omS/5TC02mV5qMlfyWa2GWLvWm3t1O9HaeHTEhmlcfY4V8y5+EHFusspyOWBpNeTsZA3XjYfdQdzhsZbOPXmPbMrwxpkVfvjSLDNLTaLIUq2HTC82mVpsMrPss7ASxHcbtp4y7vzb8NS3HGs7AzJuOW/OEgQNlldmWVqaZml5hpXVeeqNCtZagtYdfRs/D0Now6s6/zZ73/L5XsrVZaZmzlOtllhZmWdq6hzpVO5KucRGYOIhfsWufqy1nL3wBr/+7T9Tra0Q2ZBqdYWl5WmWlqZZLs1Sriy37jZcs8mT30rWtR7X3mrTCsnNWCy1MGC2VmOmVmO2Vmex0aAexp9LEEV0tkUNceB3vlOd56XTukMvvsmlQsn3manVOLeywlA2i9tqDa+9544x9GcyLDebvDo7x79dHCe0EaG1LDcazLT2cb5eZ6Xpt0dnGBNfQJLmWmdKYmRSBj8IaQYW14Hugkt3wevMTADSqbi08et3l/j+72b43m/jx2/eXcIPLJmUQ08hRdpz2ldRY6Cv6JFOXdmiAXIph66st6H2W8x5PHa0lxPjZf71NzP862+nOTdZ4YHbuylk42Au5lN05+PB65mUw4OHejg3WSWdcujKeRQLHjPLDb730kxrH6f5t5dnGZuJv4I1/LiE0tmCv7UYUqk0Db9GEMblgkKhh8w1blVOpTKEYcAbf/wxv3/1+/z+le/z+1d+wJmzrxOGAdlMnny+Z914ZPBcj2KhD7d1i/WaTLpAJlPYECY93UMc2H8fZ86+yu9+/6+89Mr3qNbLHLjtfjwvvnOvq6ufTLoAQC7bxcEDD3DhwtsM9u8mnc6Ryxa5PHGKl1/5Qbx/f/g+b/zxPymtzALg+/XWt7XNjsxbgzGGtOtQDQJCa8m4Ln2ZTLsjbcOyQM7zWGk2+cnly/xwfIwfjo/xo4sXObW8TAQUUyl60qkN33BznkdPKrNhmgG6vTS5jvLV/q4i+4tFXpya4vsXLvDv4+P0pNPc2dcbj4s2hv5sllRrOOZwLsdwNsvpUol9XUXSrkvWdXl9fp4fjY/zw7ExfjA+zotTk5T9+Ie1Vv0m6db6SXLDv5UxOzvLP/yv/8V/++Jhju30sdH2/ILY9FKTH786z1P39LFvJEulFpHPOnju1W9l2GqNNoP4Or32wlKeQ1cu/q2KWiMil4kHwtNqYdUaEZ5rNoRzvRkRRZDLXAlxgCC0VOoh5VqI6xoKrRtU1rZXroekXEMmFR/MQWgp10JSniGXcfH9iEojhLgCAq0TotB6Ta+cLDEx3+BLDw9SzF/9lW0rRCbLvHmSuertRNv0WxlT0+c4cep33H/vM/T2jFCrlcnni5u2msMwoN6oXPkBIGvb4Z7J5ImiCN9vkMnk28FnbUSjWSPlZTbUo+v1Mo7jkkplN9YSQ59qbZVmo4brpchmCmQyOYxxsDaiViuTyeRa9W5LEPjUG5W4VZ1K02zWafr1eGNrrS3HIZvpAixvvv1zHMfjnmNPt1vhWy1lm+yaf4PsNv1WhrWWNxYWuLC6yjO7dpH3POpBQHd689fTjCKqfnBVizPneWQdh2YUt1hz3pWGVBBF1MKQgudtCOcV3yfTuklkvUYYUvZ9GlF8l1/Bi+vZprWtehiSb23LAvUwoBlG5DwPzxhqYUCj4yYFt1UXr4ch/3LuHHf19fHQ0NCGvqOt9N7SIt+dnOL5577M0NAQtM75np5uvI6685rEB3Pdj3j9/RWiyPLpu3o3DeQ/h1Z2bOmVttqI+PGrc9y5r4tDu/NX6tZb7KMI5lptlZOnX6bY1c/B2+7f0Nr9c7IdHYNbYXl5hndP/Jqjh+MfNNrs4rMVtjuYARbqdV6Zm+P27iK3d/d8YH/OR6l1um2pk8vLnFhe5nOjo/RmMlu+/TU3EszbcwRtoWzK4ZHD3Tx8uGfbgupGmC0OZYhHanzp4UHu2LV9ofxRyWa7OHbnU+zfe/e2BdWN2OpQBigWB3j4gS/T37d9ofxR6c9k+NzOnewvFrflvbpR27EnB4pF/mL37k2Gz/353RJHUTrlXFVS+DhyDBSybmK+FdwMYwypVOaqksLHket6ZLOF9rjsW5kxhqzrknbicsHHWcZ1yXvx76skza1/JImIfMwomEVEEkbBLCKSMApmEZGEUTCLiCSMgllEJGEUzCIiCaNgFhFJGAWziEjCKJhFRBJGwSwikjAKZhGRhFEwi4gkjIJZRCRhFMwiIgmjYBYRSRgFs4hIwiiYRUQSRsEsIpIwCmYRkYRRMIuIJIyCWUQkYRTMIiIJo2AWEUkYBbOISMIomEVEEkbBLCKSMApmEZGEUTCLiCSMgllEJGEUzCIiCaNgFhFJGAWziEjCKJhFRBJGwSwikjAKZhGRhFEwi4gkjIJZRCRhFMwiIgmjYBYRSRgFs4hIwiiYRUQSRsEsIpIwCmYRkYRRMIuIJIyCWUQkYRTMIiIJo2AWEUkYBbOISMIomEVEEkbBLCKSMApmEZGEUTCLiCSMgllEJGEUzCIiCaNgFhFJGAWziEjCKJhFRBLGTE5M2M6JH8bs7Cz/8K1/5G+ee5rDB0exNupcRBLK4lIze6j4fWBN52xJKIeIYnUat7oM3NBpK38Gp8Yv8MOXf8Pzz32ZoaEhAIwx9PR043le5+Jws8H899/6Nl/+2n9j/+F7iG5oK/LnY1oPubVYhfIt5syJd/j5D//puoL5pksZEYYIB6vHLfYw7VNcj1vpYTb5LPVI9uP6G0A3HcwiIrK1FMwiIgmjYBYRSRgFs4hIwiiYRUQSRsEsIpIwCmYRkYRRMIuIJIyCWUQkYRTMIiIJo2AWEUkYBbOISMIomEVEEkbBLCKSMApmEZGEUTCLiCSMgllEJGEUzLLtoijk3OnjXDx/pnPWLclaS2lpgTMn36ZWLXfOFrlpCmbZdhOXLvDKr39KEPjtadZawjDEWrth2VuBMYYoCjn1zhucPXWcKNIfIpatpWCWbRVFEedOvsvonv3sO3iIIAiYuHie1176Jb//1X/y2ku/Ynb6MlEYAjA/N8OlsbNErdAur5Y49d4fefW3P+eN37/IxQtn8JtNAOq1CqePv8VKaXFDwK+Ulhg7d4rAv3Ih6BRFIdMTF5mfnd7wF96XlxaYvDxGFIaUlhd5948v89arv+Xt11/i1Ht/ZHlpAWsjevoGue3QnVweP4PvNzZsW+RmKZhlWwWBT6W8wtDITsAwM3mJV37zc5YX50lnc1TKK7z2u1+ytDCHtZaJ8bOceu8NgsCnXqvw2ku/4r0//oHy6grLS/O88pufMnbuJNZaVldKvPbSLznx1mvtELbWsjg/w/vvvfmBgRkGAWdPvs3lsTPtFq+NImYmL3H21LsEQcClC6d55/XfszA3zcLcNOdOvceLP/4es9MTOI5DsbuPZqPevqiIbBUFs2wva7HW4jguURgwefE8fQODfOqpL/HgY0/x0KefxvNSTF6+gI0iAt8n8H2stSwvLjAzeZFHn3yWz3z+yzz21JcYHt3NxQtnCAKfMAoJAp/x86dYKS22nzIKQ6Ig4IOqJNZCGIZEURj/+enWX6EOQx/TWrFeq9LXP8SjTzzLZ57+S5589q/oKvZw4s1XicIQYwzY9uoiW0bBLNvK2rgVizFYwPebpNJpMtkcXipFvtDF3gOH8LwUtlViANMqYyxT6Oqmf2iETCZLvtDF6K795PKFeNthRLG7j3yhm/OnT7TLGfHz8cF/NN6A67qYzZZy4pXDMMT1PNKZLJlsjmJ3L3sPHKK0vEjTb8SvyUZKZtlyCmbZVpENiaII1/VwXZfBkZ3MTFxi8tIFrLW4rseRYw9y5NiDuK7bmuYC4DfjEHddD1qdbrcfOcajTzxLKpXGWks6k2HfwSOMnTnB6spy+3mN44LZJHTXixu8GycZhzAIwVoM4HruhoRfa82DwXEcoqhzCyI3T8Es28pGEdZGuK6D47jsve0OduzZz8v/9Z+cfOd1GvUatEI3XsHiOA4WS2QjHONgjCEMQ+q1Ks1mo1XTta2HYXh0N719g5x469XW88Wh+kFMqzW/vt5hDDjGubINxyGMIqrlFcqrJaYmxjnx9muM7NxNOp3BGIONQuxV8S5ycxTMsq2stdgoiluwQDaX5/5HnuTw3Q9y/M1X+cOvf0ppaR7b6oAzxomDt5V1xsSH6NzMBL/75X/wy//vX3n95Rfxfb8V5hbPS3HH3fdx6cIZSqXFeDibjVrBfW1rF4ArDE6r1R7Pd7l49hS/+I/v8rMffYdXf/tzdu87yL0PPY7jOBjjxGt/8NOIXDcFs3wk1lcV8oUu7nnw0zz5xeep16u88fJ/Ua3EN2o4rkMYtUY5WDCOwTEO3T39HDn2IP1DI8xNXSYMQ4zTOnyNZWR0N8XuXi6ee7/VoWc/sPMPTBz6Hcs4jhNv1xjAMLhjF5/+7F/yxBf+iqe++Nc89JnPke8qblxJZIspmGVbGWPiFmwY15pLSwuUV0u4nsfI6C7ue+QJlhfmmJ2+HI/ecD1sZOOW7Fp1A0u+0MXufQfpHxjG9TxMq0UblxMsmWyeQ8ce4Oypd1ktLbfGJn9gMre2vL6UEYe16zit7RtS6SwDI6MMjeykt2+AVCrdLrvYuGdz3fZEtoaCWbZXq+WJMYSBz6l332DszMn26Ivunn5yhSK1ajmu67ZCz2BwXRffbxKuGycc+H6rjBAHfixeb8/+28nmcpw99Q5h+CfuxjPx/0Rh0A5nay2B34yDv7XtP3WCxK3rzqkiN+dPHXciNyfuYcO0SgeO6zJx6TwLczNUyqvMzUxSrayQKxTjlnUU4bgOjuPQ2zdEZbXE5MXzrJaWmJ+dYuLiefx1N5Owrg6dSqW5877HKC0ttDoVr52YjuNS7OljYW6W+ZkpKpVVFudmuDx2lmJ3H47rxS1qc+0WsTFrrebOOSI3R8Es28pxXBzXpVop47ou+w4eIQxCXvn1T3n5v37M6y/9kh279jG8YxfGGFLpNN29/Tiuy8DQDg7ddT8n332d37/4Y1773S+p1SrkC13tbecLRdKZbLuFu3PPfu6892F6+gZw1mrQm3Bdlz233UGhq8jrv/8Vf/ivn/KH3/yUMAzYtfcAjuOQSmcodveta5lv5DfjOwuvMVvkhpnJiYkbut7Pzs7y99/6Nn/xtf/O/sP3qtQmmwrDkN/9/Ef4QZMnvvA8qXSKleUlFudnCHyfXKHAwNAouXwBYwzllRJhGNLd04txHAK/yfLSApXVFVKpNLlCF8ZAd+9AfLv36grFnl48LwWtVnStWqbZaNDd04fTGhO9GWsttUqZxYVZGvUq6UyWnt4Burp7cRyH8mqJIAji7XSEfBgGvPvGy0xeusDnv/y3ZLLZDfNF1pw58Ta/+OE/8vxzX2ZoaAha/Rk9Pd14XjxGv9O1mxQiW8B1XQ7f/SDVSpmZqYs4jktv/yC33XEndxy9h937bidf6Gq3Sru6e+jp62+PuPBSaQaHR9l74BA7995G38AQvf1DOI5DOp2hb2CoHcq0Dvh8oUhv/+AHhjJry3YV2b3vIAcO3c2e/XfErfXWc3cVe+i9Rsu7Ul5hYXaag4ePkUqnO2eL3JSrjziRLTayaw9P/8XXGN6xuz3NGINpdeJ9GB92uRt1vdsvFLp55MlnOXj47k2DW+Rm6IiSbWeModjdRzaX75x1y3I9j2J3D17qSmtdZKsomEVEEkbBLCKSMApmEZGEUTCLiCSMgllEJGEUzCIiCaNgFhFJGAWziEjCKJhFRBJGwSwikjAKZhGRhFEwi4gkjIJZRCRhFMwiIgmjYBYRSRgFs4hIwtx0MLf+OL2IiGyRm/pjrP/wrW/z1a//HXccvZtIf41VROQqp46/x79/7zvX9cdYbzKY/5m/+cbXOXrkKFbBLCJyleMnTvD9F164rmC+6VIGymMRkWu6kVLvzQeziIhsKQWziEjCKJhFRBJGwSwikjAKZhGRhFEwi4gkjIJZRCRhFMwiIgmjYBYRSRgFs4hIwiiYRUQSRsEsIpIwCmYRkYRRMIuIJIyCWUQkYRTMIiIJo2AWEUkYBbOISMIomEVEEkbBLCKSMApmEZGEUTCLiCSMgllEJGEUzCIiCaNgFhFJGAWziEjCKJhFRBJGwSwikjAKZhGRhFEwi4gkjIJZRCRhFMwiIgmjYBYRSRgFs4hIwiiYRUQSRsEsIpIwCmYRkYRRMIuIJIyCWUQkYRTMIiIJo2AWEUkYBbOISMIomEVEEkbBLCKSMApmEZGEUTCLiCSMgllEJGEUzCIiCaNgFhFJGAWziEjCKJhFRBJGwSzbolQqMTMzQxiGnbM+lpZLy0zPTBMEQecskeumYJYtFwQBv/nNbzh/4QJRFHXO/lhaWlzid797ianpaay1nbNFrouCWbbc+Pg4c/PzHDp0iFQqRbPZZGZmhnPnzjE+Ps7KysqG8Go0GkxNT3HhwgXGxsdZXFpqB3q1WmV6enpDwFtrqVQqLCwsEEURpVKJy5cvc/HiJS5evMj4+DhjY2OMj49Tq9Ww1rK4uMi5c+c4d+4c58+f58KFC0xMTFCv1wnDkJmZGSqVSvs5AMIwZHp6Gt/3aTQaTE5OcvHiJS5dip9nbGyMsbFxZmdnGR0dpaurwPnz59VqlpvmfvOb3/yfnRM/jEqlwltvv8udd97J0NBQ52z5BDt+/DhhGHLPsWM0m01efvllXnrpJS5dusSFCxe4cOECQ0NDdHV10Wg0ePkPf+Dll3/P1FQczqfff5/+/n56eno4ffo0//ajHzEyPEJfXy/GGKy1nHz/FO+8/Tb79+/n7NmzvP7661wYG+eNN17n9JkzzM3NMTU1xcjICK7r8qtf/Yq33nqLmZlZxsbGuXhxnMXFRYaGhjDG8ML3XqC8WmbPnj24rgvAarnMv/3bv7Fnzx7q9Qa/f/klzp49y6lTp3jjj28yOzvL5OQkzUaDAwcOUKlUmJ+bY9++faRSqc63RT6h5ubmOHniBEcOH6JQKABgjCGbzeA4m7eNN58qchOCIGiH29TUNO+//z5PP/003/jGN/jKV76C67q8//77WGuZmprm3NmzPPnEk3z1+a/yN1/7Gjt27ODd996j0Wjg+z7l1VVef/01avXaledo+gRBgDEOR44e5bnnnuOrz/8Ve3bv4dChQ3zluef4yle+wvDwMEEQEAQBDz/8MH/911/l61//G772ta/xzDPPMDg4iLWWWq3O2++8w+zsLFGrNR8GIYHvE0URAwP9fPHZL/LV55/nscceY2THMM984Qs8/1d/xaOPPgqA53mfmNKNbC8Fs2w5ay3GQBRFLC0t0t/fz65duygWiwwODrJnzx7CMMRay8LiAl3FInv27KFYLFIsFrnr7rupVirtMsPg0BANv8nY2DhRFGGtbYWywXEM2UymvW4qnSabzdJVKFAoFHBdt7WcSyqVolAo0NXVRbFYJJ/Pty8gKc+jr7eX904cp1GvAxCGQeu1GFzXba+Xy+dIp9Lk83m6urrIZrPx6173+kVuhoJZtlwQ+DitkkOj0SBfKLS/2juOw7Fjx3jkkUcwxtBsNsjlcnie114/k04ThmErvKGrUODgbQc4d/Ys1Wrcag6jKP4aaEx7vZjF6Zi2FuDWRu3w7GSMw5EjR5mfnWNubg5rbTtgHdfBrNumbW1z/TRjDK7jtC8cIjdDwSxbLghCjONirSWKonardE1XVxddXV0YY/Cb/lXzaZVD4pCL8LwUe/fupdFsMjPT6ghstWQ7Yxl7peW6XmQti0vLzM7MMDc3R6lUumoo3+DgALt372ZsbIwguNJadszG08TYdc3jdRzHIVQwyxZQMMuWC8IQ14lbmRaLu2nLNhaGIU5r2SsM1salkPjfEb29vQwPDXHx4kX8IMA4cYu8MwPjNa7mN5u8/tpr/OAHP+CFF17gpz/9KQsLC+uWsLiuy4EDB5ienqZSqbSfI4o2Pok1a+m8kbPWYu6cIXKdFMyy5Uzrq338b4NxnE3DklaY2Y4OM2NolR4srhuHned57Nu3n8XFRebn5vDcuKPNdsSgc40abyqV4uFHHuGrX/0qX/va1/jCF75Af39/e77TauEPDAyQz+c5deoUBgPGEEVxPXzNtVrMGy8uIjdOwSxbzhjTHp1grSXOtyuhtbq6ytLSUrvUca08M8bgtIIZYHh4iGKxyOkzZ+J119WB16/TuUFjDK7r0dvTw8jICCMjI/T397fr2vHzxBeCXC7HoUOHOHXqFKVSCQNXtZg3ew5a5RJzjRa7yPVQMMuW29Ap5jgEzXjI2ZozZ87w2muvxS3ilEe90dwwv16vYy24rotjHKyNt5nNZrnjjju4dPFiXIawNn6ss7ZsJ+O0Wu6bzGNdi9lxHHbv3k1PTw/vHX8vrjV3NI/ttcK3VZMWuVkKZtly0VqnmetQLHYxNTXF6uoqYRhedSff0MAgS0tLzM7N4fs+zWaTkydP0t/fR1dXF6wvixjD7t27GR4e5q233sJ0jIwAiIg7BteL89sSBgG+7+P78RjotSF78UK04zaXy3Hfffdx/tx5yuXyVaM8bOv/Ol3rZgGR66UjSbac57o0m00Mhv379tPf389PfvITXnzxRX7yk58yNz/H0aNH263Tvr4+fvGLX/Czn/2Mn/70p8zOznLfffeRyWQAyOdz7QBOpVI89NBD5PN50umr75zyXG/D0Dto1aujiHfeeYef/OQn/Od//ic/+9nPeOWVV1itlAFIpTzS6XhInzGGXbt2cejwYVLpFKlUasMFwDUOnudtmGatpdlstgrs7ckiN0S3ZMuWW1xaYmJyksOHDlEsFtm1axfpdJp6vU5PTzcPPPggO3fuxHEcMpkMe3bvJpvL4fs+vb29PPTQQ4yMjOA4Do7j0NfXx8DAQDuE8/k8O3bsYHhkiP6+/g0B6bkuQ0NxLbrd0nYc0uk06XR8U0gulyOTyZDL5xgcGCCTzpDNZtmxY0f7YuC6LsPDwwwMDjA6Oroh7I0xFLvim2XWpgdBwJlW7fvgwYNXXRzkk+tGbsk2kxMTV38n+xBmZ2f5h2/9M3/z9a9z9OjRqzph5JNrcWmRn/7kp9x3330cPny4ffCtlS+udTDGHYFXlyeux9pxeL3bsNdZH+5cfm5ujt/89jccPnyYo0eP4jpXj82WT6YTJ07wvRde4PnnvtxuxBpj6OnpvuYFfPMzROQm9PX28eSTT9LX17dh+loL+FquHs98/W402K93nc7l0+k0D9z/AAcPHFQoy0279lkicoOMMezcubNdjvgk6OnpYf/+/eRyuc5ZItftk3HWyEfuRluut7JP2uuV7aNgFhFJGAWziEjCKJhFRBJGwSwikjAKZhGRhFEwi4gkjIJZRCRhFMwiIgmjYBYRSRgFs4hIwiiYRUQSRsEsIpIwCmYRkYRRMIuIJIyCWUQkYRTMIiIJo2AWEUkYBbOISMIomEVEEkbBLCKSMApmEZGEUTCLiCSMgllEJGEUzCIiCaNgFhFJGAWziEjCKJhFRBJGwSwikjAKZhGRhFEwi4gkjIJZRCRhFMwiIgmjYBYRSRgFs4hIwiiYRUQSRsEsIpIwCmYRkYRRMIuIJIyCWUQkYRTMIiIJo2AWEUkYBbOISMIomEVEEkbBLCKSMApmEZGEUTCLiCTMTQSzAWM6J4qISCdj4sz8kG44mI0xpDyXMAyw1nbOFhH5xLPWEoYhnutinI8gmNPpFN3dPczNzeP7fudsEZFPvDAMmZudpVgskk6lOmdf0w0Hcy6XY+/e3Zw8cYLp6WmiKOpcRETkEyuKIsbHx3nt9dfZvXsXuXy+c5FrMpMTEzdUh7DWMjMzyy9/9SLWGB555FFGR3fgum6rlmJRhUNEPol8v8nY2DivvvoqKc/j8c98ir7e3vZ8Yww9Pd14nrdhvTU3HMy0mukTk5O8+tobzM3N47gO2WwOAGsjBbOIfOJYa2k06gRByNDgIPfde4yB/n7MusES2xrMtJrrq+UyszOzLCwuUms0CHyfZrOpTkER+cRxjEM2m6Wvt5eBgX5yudyGUOajCOY11lqiKMICfrNJuVxR3VlEPpGMMe3HZhzXpae72Cr9Xm3Lgnm9KIqoVCo0Gs3OWSIin3jZbJZCIX/t4O6csBUcJ27Kp1LeNZ9YROSTxhhDOp0ml8t+YDZuS4uZdaWNZtMnDENgW55GROSWYIzBdT3S6RSO88Ft4m0L5vXUCSgiEofzh/GRBLOIiHx4H9yeFhGRj5yCWUQkYRTMIiIJo2AWEUkYBbOISMIomEVEEkbBLCKSMApmEZGEUTCLiCSMgllEJGEUzCIiCaNgFhFJmP8faIG0FgEOzvMAAAAASUVORK5CYII=;" vertex="1" parent="1">
          <mxGeometry x="210" y="50" width="358" height="488" as="geometry" />
        </mxCell>
        <mxCell id="I_dTkE6rpuBhYtCXIpUs-2" value="" style="rounded=0;whiteSpace=wrap;html=1;strokeOpacity=100;fillOpacity=0;strokeWidth=2;" vertex="1" parent="1">
          <mxGeometry x="200" y="80" width="380" height="40" as="geometry" />
        </mxCell>
        <mxCell id="I_dTkE6rpuBhYtCXIpUs-3" value="&lt;font&gt;nav&lt;/font&gt;" style="text;html=1;align=center;verticalAlign=middle;whiteSpace=wrap;rounded=0;fontSize=25;" vertex="1" parent="1">
          <mxGeometry x="600" y="85" width="60" height="30" as="geometry" />
        </mxCell>
        <mxCell id="I_dTkE6rpuBhYtCXIpUs-4" value="" style="rounded=0;whiteSpace=wrap;html=1;strokeOpacity=100;fillOpacity=0;strokeWidth=2;" vertex="1" parent="1">
          <mxGeometry x="200" y="100" width="380" height="100" as="geometry" />
        </mxCell>
        <mxCell id="I_dTkE6rpuBhYtCXIpUs-5" value="&lt;font&gt;header&lt;/font&gt;" style="text;html=1;align=center;verticalAlign=middle;whiteSpace=wrap;rounded=0;fontSize=25;" vertex="1" parent="1">
          <mxGeometry x="610" y="135" width="60" height="30" as="geometry" />
        </mxCell>
        <mxCell id="I_dTkE6rpuBhYtCXIpUs-6" value="" style="rounded=0;whiteSpace=wrap;html=1;strokeOpacity=100;fillOpacity=0;strokeWidth=2;" vertex="1" parent="1">
          <mxGeometry x="200" y="200" width="380" height="140" as="geometry" />
        </mxCell>
        <mxCell id="I_dTkE6rpuBhYtCXIpUs-7" value="&lt;font&gt;3 thẻ div&lt;/font&gt;" style="text;html=1;align=center;verticalAlign=middle;whiteSpace=wrap;rounded=0;fontSize=25;" vertex="1" parent="1">
          <mxGeometry x="600" y="255" width="120" height="30" as="geometry" />
        </mxCell>
        <mxCell id="I_dTkE6rpuBhYtCXIpUs-8" value="" style="rounded=0;whiteSpace=wrap;html=1;strokeOpacity=100;fillOpacity=0;strokeWidth=2;" vertex="1" parent="1">
          <mxGeometry x="200" y="340" width="380" height="60" as="geometry" />
        </mxCell>
        <mxCell id="I_dTkE6rpuBhYtCXIpUs-9" value="&lt;font&gt;div&lt;/font&gt;" style="text;html=1;align=center;verticalAlign=middle;whiteSpace=wrap;rounded=0;fontSize=25;" vertex="1" parent="1">
          <mxGeometry x="600" y="350" width="120" height="30" as="geometry" />
        </mxCell>
        <mxCell id="I_dTkE6rpuBhYtCXIpUs-10" value="&lt;font&gt;div&lt;/font&gt;" style="text;html=1;align=center;verticalAlign=middle;whiteSpace=wrap;rounded=0;fontSize=25;" vertex="1" parent="1">
          <mxGeometry x="610" y="450" width="120" height="30" as="geometry" />
        </mxCell>
        <mxCell id="I_dTkE6rpuBhYtCXIpUs-11" value="" style="rounded=0;whiteSpace=wrap;html=1;strokeOpacity=100;fillOpacity=0;strokeWidth=2;" vertex="1" parent="1">
          <mxGeometry x="200" y="400" width="380" height="140" as="geometry" />
        </mxCell>
        <mxCell id="I_dTkE6rpuBhYtCXIpUs-12" value="&lt;font&gt;1 thẻ cha&lt;/font&gt;&lt;div&gt;&lt;font&gt;display: flex&lt;/font&gt;&lt;/div&gt;" style="text;html=1;align=center;verticalAlign=middle;whiteSpace=wrap;rounded=0;fontSize=25;" vertex="1" parent="1">
          <mxGeometry x="20" y="165" width="160" height="30" as="geometry" />
        </mxCell>
      </root>
    </mxGraphModel>
  </diagram>
</mxfile>
